<?xml version="1.0" encoding="UTF-8" standalone="no"?>
<!-- Created with Inkscape (http://www.inkscape.org/) -->

<svg
   xmlns:dc="http://purl.org/dc/elements/1.1/"
   xmlns:cc="http://creativecommons.org/ns#"
   xmlns:rdf="http://www.w3.org/1999/02/22-rdf-syntax-ns#"
   xmlns:svg="http://www.w3.org/2000/svg"
   xmlns="http://www.w3.org/2000/svg"
   xmlns:sodipodi="http://sodipodi.sourceforge.net/DTD/sodipodi-0.dtd"
   xmlns:inkscape="http://www.inkscape.org/namespaces/inkscape"
   width="95.449669mm"
   height="16.381941mm"
   viewBox="0 0 95.449669 16.381941"
   version="1.1"
   id="svg8"
   inkscape:version="0.92.3 (2405546, 2018-03-11)"
   sodipodi:docname="ifs_logo_rgb.svg">
  <defs
     id="defs2" />
  <sodipodi:namedview
     id="base"
     pagecolor="#ffffff"
     bordercolor="#666666"
     borderopacity="1.0"
     inkscape:pageopacity="0.0"
     inkscape:pageshadow="2"
     inkscape:zoom="0.77167689"
     inkscape:cx="-397.86124"
     inkscape:cy="508.10085"
     inkscape:document-units="mm"
     inkscape:current-layer="layer1"
     showgrid="false"
     fit-margin-top="0"
     fit-margin-left="0"
     fit-margin-right="0"
     fit-margin-bottom="0"
     inkscape:window-width="2560"
     inkscape:window-height="1346"
     inkscape:window-x="-11"
     inkscape:window-y="-11"
     inkscape:window-maximized="1" />
  <metadata
     id="metadata5">
    <rdf:RDF>
      <cc:Work
         rdf:about="">
        <dc:format>image/svg+xml</dc:format>
        <dc:type
           rdf:resource="http://purl.org/dc/dcmitype/StillImage" />
        <dc:title></dc:title>
      </cc:Work>
    </rdf:RDF>
  </metadata>
  <g
     inkscape:label="Ebene 1"
     inkscape:groupmode="layer"
     id="layer1"
     transform="translate(-477.66207,-393.88641)">
    <g
       transform="matrix(0.35277777,0,0,0.35277777,472.6625,385.98595)"
       inkscape:label="rwth_ifs_bild_rgb"
       id="g4526">
      <g
         id="g4528">
        <path
           inkscape:connector-curvature="0"
           id="path4530"
           style="fill:#88b5e4;fill-opacity:1;fill-rule:nonzero;stroke:none"
           d="m 228.438,49.508 h 2.05 c 1.961,0 3.02,0.996 3.02,2.988 0,2.32 -1.18,3.227 -3.262,3.227 h -1.808 z m -4.344,18.347 h 4.344 v -9.113 h 2.324 c 1.75,0 2.504,1.024 2.566,2.715 l 0.117,4.133 c 0.032,0.844 0.121,1.66 0.543,2.265 h 4.707 v -0.183 c -0.812,-0.422 -0.933,-1.598 -0.965,-3.859 -0.058,-4.559 -0.511,-6.188 -3.468,-6.583 v -0.058 c 2.445,-0.516 3.593,-2.445 3.593,-5.313 0,-3.679 -2.175,-5.55 -5.738,-5.55 h -8.023 v 21.546" />
        <path
           inkscape:connector-curvature="0"
           id="path4532"
           style="fill:#88b5e4;fill-opacity:1;fill-rule:nonzero;stroke:none"
           d="m 160.031,46.309 v 15.027 c 0,5.762 3.348,6.941 6.879,6.941 3.531,0 6.879,-1.449 6.879,-6.941 V 46.309 h -4.344 v 15.027 c 0,2.141 -0.511,3.742 -2.535,3.742 -2.019,0 -2.535,-1.601 -2.535,-3.742 V 46.309 h -4.344" />
        <path
           inkscape:connector-curvature="0"
           id="path4534"
           style="fill:#88b5e4;fill-opacity:1;fill-rule:nonzero;stroke:none"
           d="m 174.855,46.309 v 21.543 h 3.981 V 52.766 h 0.062 l 5.309,15.086 h 4.949 V 46.309 h -3.98 v 14.754 h -0.063 l -5.25,-14.754 h -5.008" />
        <path
           inkscape:connector-curvature="0"
           id="path4536"
           style="fill:#88b5e4;fill-opacity:1;fill-rule:nonzero;stroke:none"
           d="m 190.273,46.309 h 4.344 v 21.543 h -4.344 z" />
        <path
           inkscape:connector-curvature="0"
           id="path4538"
           style="fill:#88b5e4;fill-opacity:1;fill-rule:nonzero;stroke:none"
           d="m 194.918,46.309 4.945,21.543 h 5.586 l 4.946,-21.543 h -4.497 l -3.195,15.933 h -0.09 l -3.05,-15.933 h -4.645" />
        <path
           inkscape:connector-curvature="0"
           id="path4540"
           style="fill:#88b5e4;fill-opacity:1;fill-rule:nonzero;stroke:none"
           d="m 210.785,46.309 v 21.543 h 12.34 v -3.559 h -7.996 V 58.5 h 7.242 v -3.562 h -7.242 v -5.067 h 7.695 v -3.562 h -12.039" />
        <path
           inkscape:connector-curvature="0"
           id="path4542"
           style="fill:#88b5e4;fill-opacity:1;fill-rule:nonzero;stroke:none"
           d="M 238.215,61.125 V 62 c 0,3.984 1.93,6.277 6.848,6.277 4.707,0 7.484,-2.054 7.484,-6.609 0,-2.625 -0.844,-4.285 -4.106,-5.703 l -3.347,-1.449 c -1.84,-0.786 -2.235,-1.598 -2.235,-2.926 0,-1.27 0.516,-2.508 2.477,-2.508 1.656,0 2.352,1.18 2.352,3.199 h 4.164 V 51.68 c 0,-4.133 -2.805,-5.793 -6.668,-5.793 -4.106,0 -6.668,2.14 -6.668,6.336 0,3.59 1.781,5.191 5.64,6.519 2.867,0.996 3.864,1.719 3.864,3.68 0,1.812 -1.266,2.656 -2.594,2.656 -2.293,0 -2.867,-1.297 -2.867,-3.32 v -0.633 h -4.344" />
        <path
           inkscape:connector-curvature="0"
           id="path4544"
           style="fill:#88b5e4;fill-opacity:1;fill-rule:nonzero;stroke:none"
           d="m 253.113,46.309 h 4.348 v 21.543 h -4.348 z" />
        <path
           inkscape:connector-curvature="0"
           id="path4546"
           style="fill:#88b5e4;fill-opacity:1;fill-rule:nonzero;stroke:none"
           d="m 280.027,46.309 -3.015,8.328 h -0.063 l -2.836,-8.328 h -16.086 v 3.562 h 4.707 v 17.981 h 4.348 V 49.871 h 3.664 l 4.063,9.504 v 8.477 h 4.343 v -8.477 l 5.586,-13.066 h -4.711" />
        <path
           inkscape:connector-curvature="0"
           id="path4548"
           style="fill:#2f56ae;fill-opacity:1;fill-rule:nonzero;stroke:none"
           d="M 121.859,44.348 H 114.66 V 22.707 h 11.805 c 3.203,0 5.965,2.07 6.863,4.82 0.836,2.547 0.121,5.313 -1.758,7.282 0.25,0.679 0.493,1.207 0.727,1.816 0.519,1.207 1,2.41 1.523,3.602 l 1.711,4.121 h -7.301 c 0,0.004 -0.058,-0.172 -0.117,-0.246 -0.289,-0.637 -0.55,-1.321 -0.84,-1.961 l -1.757,-4.164 c -0.696,-1.684 -1.395,-3.278 -2.09,-4.957 0.871,-0.024 1.519,0.136 2.359,-0.25 0.59,-0.29 1.485,-1.008 1.508,-2.391 -0.023,-0.688 -0.215,-1.207 -0.668,-1.746 -0.453,-0.5 -1.113,-0.875 -1.969,-0.887 0,0 -2.797,0 -2.797,0 v 16.602" />
        <path
           inkscape:connector-curvature="0"
           id="path4550"
           style="fill:#2f56ae;fill-opacity:1;fill-rule:nonzero;stroke:none"
           d="m 197.063,22.707 v 21.641 h -7.2 v -8.825 h -5.039 v 8.825 c -1.304,0 -2.715,-0.016 -4.019,0 h -3.184 V 27.715 h -5.031 v 16.633 h -7.203 V 27.715 h -5.078 v 16.633 h -7.418 c -1.289,-3.121 -2.657,-6.27 -3.918,-9.375 -0.145,-0.653 -0.289,-1.309 -0.481,-1.946 v 11.321 h -7.429 c -1.473,-3.426 -2.891,-6.782 -4.36,-10.258 -0.508,-1.203 -0.926,-2.184 -1.449,-3.438 l -0.074,-0.16 -1.145,-2.687 -1.637,-3.836 c -0.144,-0.434 -0.375,-0.828 -0.523,-1.262 h 7.418 c 1.523,3.699 3.062,7.359 4.656,11 l 0.047,0.09 c -0.058,-0.422 -0.191,-0.961 -0.266,-1.363 v -6.461 c 0.016,-1.032 0,-2.207 0,-3.266 h 7.434 c 0.094,0.234 0.145,0.363 0.219,0.551 0.871,2.047 1.695,4.078 2.566,6.113 l 1.946,4.426 c -0.043,-0.465 -0.145,-0.914 -0.204,-1.363 v -9.727 h 29.133 v 7.809 h 5.039 v -7.809 h 7.2" />
        <path
           inkscape:connector-curvature="0"
           id="path4552"
           style="fill:#88b5e4;fill-opacity:1;fill-rule:nonzero;stroke:none"
           d="m 222.77,22.703 h -5.399 l -4.516,17.063 -4.515,-17.063 h -5.395 l -5.73,21.645 h 4.551 l 1,-4.578 h 5.757 l 1,4.578 h 6.668 l 1,-4.578 h 5.758 l 1,4.578 h 4.547 z m -19.247,13.492 2.09,-9.73 h 0.059 l 2.094,9.73 z m 14.426,0 2.09,-9.73 h 0.063 l 2.089,9.73 h -4.242" />
        <path
           inkscape:connector-curvature="0"
           id="path4554"
           style="fill:#88b5e4;fill-opacity:1;fill-rule:nonzero;stroke:none"
           d="m 241.496,30.09 c 0,-3.137 -0.449,-7.695 -6.668,-7.695 -6.515,0 -7.332,4.648 -7.332,11.195 0,6.547 0.817,11.195 7.332,11.195 5.703,0 6.852,-4.012 6.852,-8.66 h -4.344 c 0,4.648 -1.148,5.461 -2.719,5.461 -1.871,0 -2.773,-1.176 -2.773,-7.695 0,-6.094 0.511,-8.297 2.715,-8.297 1.961,0 2.593,1.359 2.593,4.496 h 4.344" />
        <path
           inkscape:connector-curvature="0"
           id="path4556"
           style="fill:#88b5e4;fill-opacity:1;fill-rule:nonzero;stroke:none"
           d="m 242.535,44.348 h 4.367 v -9.606 h 5.09 v 9.606 h 4.367 V 22.707 h -4.367 v 8.277 h -5.09 v -8.277 h -4.367 v 21.641" />
        <path
           inkscape:connector-curvature="0"
           id="path4558"
           style="fill:#88b5e4;fill-opacity:1;fill-rule:nonzero;stroke:none"
           d="m 257.305,22.703 v 21.645 h 12.398 V 40.77 h -8.031 v -5.821 h 7.273 v -3.574 h -7.273 v -5.094 h 7.726 v -3.578 h -12.093" />
        <path
           inkscape:connector-curvature="0"
           id="path4560"
           style="fill:#88b5e4;fill-opacity:1;fill-rule:nonzero;stroke:none"
           d="m 270.352,22.707 v 21.641 h 4 V 29.195 h 0.062 l 5.332,15.153 h 4.973 V 22.707 h -4 v 14.82 h -0.063 l -5.273,-14.82 h -5.031" />
        <path
           inkscape:connector-curvature="0"
           id="path4562"
           style="fill:#2f56ae;fill-opacity:1;fill-rule:nonzero;stroke:none"
           d="m 99.984,22.68 h 1 v 45.352 h -1 z" />
        <path
           inkscape:connector-curvature="0"
           id="path4564"
           style="fill:#2f56ae;fill-opacity:1;fill-rule:nonzero;stroke:none"
           d="m 19.543,50.16 -1.473,0.391 c -0.648,0.168 -1.101,0.754 -1.101,1.426 v 1.859 c 0,0.66 0.437,1.238 1.07,1.422 l 2.645,0.754 v 8.578 l -5.258,1.426 c -0.395,0.109 -0.731,0.371 -0.926,0.73 l -0.258,0.465 c -0.203,0.371 0.067,0.828 0.492,0.828 h 14.551 c 0.426,0 0.695,-0.457 0.492,-0.828 L 29.52,66.746 c -0.196,-0.359 -0.532,-0.621 -0.926,-0.73 L 23.336,64.59 v -8.578 l 2.641,-0.754 c 0.636,-0.184 1.07,-0.762 1.07,-1.422 v -1.859 c 0,-0.672 -0.449,-1.258 -1.098,-1.426 L 24.473,50.16 c -0.805,-0.211 -1.629,-0.32 -2.461,-0.324 h -0.004 c -0.832,0.004 -1.66,0.113 -2.465,0.324" />
        <path
           inkscape:connector-curvature="0"
           id="path4566"
           style="fill:#88b5e4;fill-opacity:1;fill-rule:nonzero;stroke:none"
           d="m 14.172,37.539 v 9.82 c 0,0.829 0.672,1.5 1.504,1.5 h 6.383 c 0.882,0 1.765,0.121 2.617,0.356 l 2.246,0.621 c 0.641,0.176 1.082,0.758 1.082,1.422 v 2.59 c 0,0.406 0.328,0.73 0.734,0.73 h 0.887 c 0.406,0 0.734,-0.324 0.734,-0.73 V 37.539 H 14.172" />
        <path
           inkscape:connector-curvature="0"
           id="path4568"
           style="fill:#2f56ae;fill-opacity:1;fill-rule:nonzero;stroke:none"
           d="m 38.656,33.25 h 6.121 v -6.121 h -6.121 z m 0,34.789 h 6.121 V 37.555 h -6.121 z m 14.168,0 h 6.117 V 42.086 h 4.989 v -4.531 h -4.989 v -2.664 c 0,-1.02 0.266,-1.758 0.797,-2.207 0.528,-0.454 1.36,-0.68 2.492,-0.68 h 1.7 v -4.703 c -0.907,-0.113 -2.024,-0.172 -3.344,-0.172 -2.492,0 -4.41,0.547 -5.75,1.644 -1.344,1.094 -2.012,3.079 -2.012,5.95 v 2.832 h -4.25 v 4.531 h 4.25 z M 85.633,46.449 V 45.09 c 0,-0.942 -0.133,-1.906 -0.399,-2.887 -0.261,-0.984 -0.746,-1.879 -1.445,-2.695 -0.699,-0.809 -1.672,-1.473 -2.918,-1.981 -1.246,-0.511 -2.832,-0.765 -4.758,-0.765 -3.211,0 -5.754,0.679 -7.621,2.039 -1.871,1.359 -2.804,3.476 -2.804,6.347 0,2.457 0.507,4.344 1.527,5.668 1.019,1.321 2.683,2.36 4.988,3.114 l 4.985,1.758 c 2.23,0.757 3.343,2.25 3.343,4.476 0,1.399 -0.406,2.492 -1.218,3.285 -0.813,0.797 -2.067,1.192 -3.766,1.192 -1.813,0 -3.063,-0.453 -3.742,-1.36 -0.68,-0.906 -1.02,-2.269 -1.02,-4.082 v -0.961 h -5.437 v 1.133 c 0,1.473 0.16,2.797 0.48,3.965 0.32,1.172 0.867,2.164 1.645,2.977 0.773,0.812 1.8,1.437 3.086,1.871 1.285,0.433 2.89,0.648 4.816,0.648 1.512,0 2.938,-0.18 4.277,-0.535 1.344,-0.359 2.504,-0.918 3.489,-1.672 0.98,-0.754 1.754,-1.719 2.32,-2.891 0.566,-1.171 0.852,-2.57 0.852,-4.191 0,-2.418 -0.54,-4.297 -1.618,-5.641 -1.074,-1.339 -2.746,-2.39 -5.011,-3.144 l -3.911,-1.36 c -1.625,-0.566 -2.75,-1.152 -3.371,-1.757 -0.625,-0.602 -0.937,-1.508 -0.937,-2.719 0,-1.438 0.426,-2.457 1.277,-3.059 0.848,-0.605 1.879,-0.91 3.086,-0.91 0.793,0 1.445,0.133 1.957,0.399 0.508,0.265 0.926,0.613 1.246,1.046 0.321,0.438 0.539,0.938 0.653,1.504 0.113,0.567 0.168,1.153 0.168,1.754 v 0.793 h 5.781" />
      </g>
    </g>
  </g>
</svg>
